<svg xmlns="http://www.w3.org/2000/svg" viewBox="0 0 128 128">
  <path fill="#FCC624" d="M109.5 64c0-1.2.1-2.4.1-3.6 0-19.1-15.5-34.6-34.6-34.6-7.6 0-14.6 2.5-20.3 6.6C51.9 19.8 39.7 11.4 25.7 11.4c-14.7 0-26.7 11.9-26.7 26.7 0 1.1.1 2.2.2 3.3C5.5 36.2 11 32 17.5 32c8.5 0 15.4 6.9 15.4 15.4 0 1.2-.1 2.4-.4 3.5-6.5 3.8-10.9 10.8-10.9 18.7 0 12.1 9.8 21.9 21.9 21.9 6 0 11.4-2.4 15.4-6.3 3.3 8.9 11.9 15.2 22 15.2 9.1 0 17-5.2 20.8-12.8 1.6.4 3.3.6 5 .6 10.6 0 19.2-8.6 19.2-19.2 0-.6 0-1.2-.1-1.8-.1-.7-.1-1.4-.2-2.1z"/>
  <path d="M100.5 57.3L91 47.8c-.4-.4-.9-.6-1.4-.6h-15c-.6 0-1.1.2-1.5.6l-9.5 9.5c-.8.8-.8 2.1 0 2.9l4.7 4.7c.4.4.9.6 1.4.6.5 0 1-.2 1.4-.6l3.4-3.4v35.4c0 1.1.9 2 2 2h7c1.1 0 2-.9 2-2V61.5l3.4 3.4c.8.8 2.1.8 2.9 0l4.7-4.7c.8-.8.8-2.1 0-2.9z" fill="#000"/>
</svg>