<svg xmlns="http://www.w3.org/2000/svg" viewBox="0 0 256 135">
  <defs>
    <radialGradient id="php-gradient" cx="58%" cy="45%">
      <stop offset="0%" stop-color="#fff"/>
      <stop offset="50%" stop-color="#4f5b93"/>
      <stop offset="99%" stop-color="#2f3a8f"/>
    </radialGradient>
  </defs>
  <ellipse cx="128" cy="67.3" rx="128" ry="67.3" fill="url(#php-gradient)"/>
  <ellipse cx="128" cy="67.3" rx="123" ry="62.3" fill="#6181b6"/>
  <path fill="#fff" d="M152.9 87.5c0 3.4.1 6.4.2 8.8h-9.8l-.6-3.6h-.2c-1.4 2-4.3 4.2-9.4 4.2-6.6 0-11.9-4.2-11.9-13.6V64.8h11v17.6c0 4.5 1.4 7 4.8 7 2.4 0 3.8-1.6 4.4-3 .2-.5.3-1.2.3-1.9V64.8h11v22.7zm-45.1 5.6c-1.5 2.4-4.5 4.5-9.1 4.5-8.6 0-14.8-6.9-14.8-17.5 0-11.5 7.3-18 15.5-18 3.5 0 6.6 1.2 8.5 3.6h.2l.3-3h9.6c-.1 1.9-.2 4.8-.2 8.5v28.9h-10v-7zm0-11.4c0-.6 0-1.1-.1-1.6-.5-2.3-2.5-4.2-5.2-4.2-4 0-6.4 3.4-6.4 8.8 0 5 2.1 8.5 6.3 8.5 2.5 0 4.7-1.6 5.3-4.3.1-.5.2-1.1.2-1.7V81.7zm113.4-16.9h-11.2l.6 3.6h.2c1.4-2 4.3-4.2 9.4-4.2 6.6 0 11.9 4.2 11.9 13.6v18.4h-11V78.6c0-4.5-1.4-7-4.8-7-2.4 0-3.8 1.6-4.4 3-.2.5-.3 1.2-.3 1.9v20.6h-11V71.7c0-4.3 0-7.8-.2-10.9h9.8zm-46.6 13.9c0 10.6-7.5 17.9-18.1 17.9S138.4 89.7 138.4 79c0-10.1 7-17.9 18.7-17.9 11.2 0 17.5 7.7 17.5 17.9zm-11.3.4c0-5.5-2.3-9.1-6.5-9.1-4.3 0-6.6 3.7-6.6 9 0 5.5 2.4 9.1 6.6 9.1 4 0 6.5-3.6 6.5-9zM89.4 42.7h-11v24.5h-.2c-1.4-2-4.3-4.2-9.4-4.2-8.6 0-14.8 6.9-14.8 17.5 0 11.5 7.3 18 15.5 18 3.5 0 6.6-1.2 8.5-3.6h.2l.3 3h9.6c-.1-1.9-.2-4.8-.2-8.5V42.7zm-11 31c0 .6 0 1.1.1 1.6.5 2.3 2.5 4.2 5.2 4.2 4 0 6.4-3.4 6.4-8.8 0-5-2.1-8.5-6.3-8.5-2.5 0-4.7 1.6-5.3 4.3-.1.5-.2 1.1-.2 1.7v5.5z"/>
</svg>