<svg xmlns="http://www.w3.org/2000/svg" viewBox="0 0 32 32">
  <rect width="32" height="32" rx="3" fill="#00758f"/>
  <path d="M8.562 15.256h2.412c.925 0 1.588.644 1.588 1.541v4.5c0 .897-.663 1.55-1.588 1.55h-2.412c-.925 0-1.587-.653-1.587-1.55v-4.5c0-.897.662-1.541 1.587-1.541zm12.55 0c.925 0 1.587.644 1.587 1.541v4.5c0 .897-.662 1.55-1.587 1.55h-2.413c-.925 0-1.587-.653-1.587-1.55v-4.5c0-.897.662-1.541 1.587-1.541h2.412zM23.862 9.1c0-.897-.681-1.541-1.587-1.541H9.725c-.906 0-1.587.644-1.587 1.541v2.512h1.656v-1.753h12.412v1.753h1.656V9.1zm-7.5 5.787H15.8c-.925 0-1.587.644-1.587 1.541v4.5c0 .897.662 1.55 1.587 1.55h.562c.925 0 1.587-.653 1.587-1.55v-4.5c0-.897-.662-1.541-1.587-1.541z" fill="#fff"/>
</svg>