<svg xmlns="http://www.w3.org/2000/svg" viewBox="0 0 256 256">
  <defs>
    <linearGradient id="swift-gradient" x1="50%" y1="0%" x2="50%" y2="100%">
      <stop offset="0%" stop-color="#faae42"/>
      <stop offset="100%" stop-color="#ef3e31"/>
    </linearGradient>
  </defs>
  <path fill="url(#swift-gradient)" d="M56.9 0h141.8c31.4 0 56.9 25.5 56.9 56.9v141.8c0 31.4-25.5 56.9-56.9 56.9H56.9C25.5 255.6 0 230.1 0 198.7V56.9C0 25.5 25.5 0 56.9 0z"/>
  <path fill="#fff" d="M72.6 115.5c23.3 28.3 54.5 44.9 81.3 42.7-15.6-13.8-30.8-28.9-44.1-45.1 37.8 22.6 70.7 27.7 93.7 16.1-42.4-31.3-83-79.8-105.5-109.2-7.5 34.7-8.9 69.1-1.1 101.6-23.7-28.8-42.9-65.8-50.9-99.7C34.1 60.3 49.5 91.3 72.6 115.5zm92.4 57.8c-26.5 2.1-58.5-13.6-84.5-41.3 21.7 34.8 55.3 66.7 92.5 88.4-5.4-17.4-7.6-31.5-8-47.1z"/>
</svg>