<svg width="32" height="32" viewBox="0 0 32 32" fill="none" xmlns="http://www.w3.org/2000/svg">
  <rect width="32" height="32" rx="4" fill="#06B6D4"/>
  <path d="M16 8c-2.2 0-3.8.8-4.8 2.4.8-1.2 1.8-1.6 3-1.2.7.2 1.2.7 1.7 1.2 1 1 2.2 2.2 4.7 2.2 2.2 0 3.8-.8 4.8-2.4-.8 1.2-1.8 1.6-3 1.2-.7-.2-1.2-.7-1.7-1.2-1-1-2.2-2.2-4.7-2.2zm-4.8 8c-2.2 0-3.8.8-4.8 2.4.8-1.2 1.8-1.6 3-1.2.7.2 1.2.7 1.7 1.2 1 1 2.2 2.2 4.7 2.2 2.2 0 3.8-.8 4.8-2.4-.8 1.2-1.8 1.6-3 1.2-.7-.2-1.2-.7-1.7-1.2-1-1-2.2-2.2-4.7-2.2z" fill="white"/>
</svg>
