<svg xmlns="http://www.w3.org/2000/svg" viewBox="0 0 400 400">
  <rect width="400" height="400" rx="50" fill="#3178c6"/>
  <path d="M56.611 128.85h108.172v-37.31H0v37.31h108.172v283.22h56.439V128.85z" fill="#fff"/>
  <path d="M277.171 193.193c-10.606-4.957-23.147-8.476-37.623-10.558-14.476-2.082-25.511-5.172-33.106-9.27-7.595-4.098-11.392-10.769-11.392-20.013 0-7.172 2.932-13.632 8.797-19.38 5.864-5.748 14.476-8.622 25.835-8.622 9.444 0 17.794 1.789 25.052 5.366 7.258 3.578 13.123 8.622 17.578 15.133l32.324-18.598c-7.258-11.884-17.362-21.154-30.313-27.81-12.95-6.656-28.011-9.984-45.183-9.984-14.908 0-28.227 2.513-39.956 7.54-11.73 5.026-20.882 12.197-27.458 21.513-6.576 9.316-9.864 20.23-9.864 32.744 0 18.275 6.036 32.637 18.109 43.086 12.073 10.45 29.353 17.745 51.84 21.887 11.73 2.082 21.51 4.85 29.341 8.305 7.831 3.454 13.587 7.659 17.27 12.616 3.682 4.957 5.523 11.097 5.523 18.421 0 8.728-3.574 15.81-10.723 21.246-7.149 5.436-16.916 8.154-29.3 8.154-12.384 0-23.958-2.824-34.722-8.471-10.764-5.648-19.128-13.632-25.093-23.953l-32.324 18.598c8.259 15.81 20.006 28.324 35.24 37.542 15.235 9.218 33.322 13.827 54.26 13.827 15.34 0 29.125-2.619 41.354-7.857 12.23-5.239 21.834-12.616 28.811-22.132 6.977-9.516 10.466-20.536 10.466-33.06 0-11.884-2.5-21.778-7.499-29.682-5-7.904-12.229-14.349-21.687-19.335z" fill="#fff"/>
</svg>