<svg xmlns="http://www.w3.org/2000/svg" viewBox="0 0 630 630">
  <rect width="630" height="630" fill="#f7df1e"/>
  <path d="M165.65 526.47c-17.64-10.18-27.19-30.93-26.66-55.99h36.35c.93 15.73 8.24 23.66 23.15 23.66 14.13 0 23.66-7.93 23.66-18.55 0-12.1-8.24-17.29-27.65-24.77l-9.49-4.07c-27.28-11.63-45.41-26.21-45.41-57.03 0-28.37 21.62-49.99 55.42-49.99 24.05 0 41.33 8.38 53.77 30.28l-29.44 18.9c-6.48-11.63-13.47-16.2-24.33-16.2-11.07 0-18.09 7.02-18.09 16.2 0 11.35 7.02 15.93 23.26 22.94l9.49 4.07c32.13 13.78 50.27 27.84 50.27 59.42 0 34.03-26.72 52.7-62.58 52.7-35.12 0-57.67-16.76-68.79-38.82z" fill="#000"/>
  <circle cx="315" cy="315" r="45" fill="#000"/>
  <path d="M369 315c0-29.82 24.18-54 54-54s54 24.18 54 54-24.18 54-54 54-54-24.18-54-54zm18 0c0 19.88 16.12 36 36 36s36-16.12 36-36-16.12-36-36-36-36 16.12-36 36z" fill="#000"/>
</svg>