<svg xmlns="http://www.w3.org/2000/svg" viewBox="0 0 256 256">
  <defs>
    <linearGradient id="vscode-gradient" x1="50%" y1="0%" x2="50%" y2="100%">
      <stop offset="0%" stop-color="#0065a9"/>
      <stop offset="100%" stop-color="#007acc"/>
    </linearGradient>
  </defs>
  <mask id="a">
    <path fill="#fff" d="M181.534 254.252a15.934 15.934 0 0012.7-.488l52.706-25.361a16.002 16.002 0 009.06-14.42V42.018c0-6.15-3.522-11.754-9.06-14.42L194.234 2.238a15.939 15.939 0 00-18.185 3.097l-100.9 92.052-43.95-33.361a10.655 10.655 0 00-13.614.605L3.476 77.786c-4.633 4.165-4.633 11.278 0 15.443l35.812 32.013-35.812 32.013c-4.633 4.165-4.633 11.277 0 15.442l14.109 13.155a10.653 10.653 0 0013.613.606l43.95-33.362 100.9 92.053a15.915 15.915 0 005.486 3.103zm10.645-184.057l-76.53 76.53 76.53 76.53V70.195z"/>
  </mask>
  <g mask="url(#a)">
    <path fill="url(#vscode-gradient)" d="M246.94 27.638L194.193 2.241a15.947 15.947 0 00-18.194 3.092L3.324 162.484c-4.632 4.165-4.632 11.277 0 15.442l14.11 13.155a10.653 10.653 0 0013.613.606l208.907-158.426c6.44-4.882 15.976-1.075 15.976 6.388v-9.683c0-6.15-3.522-11.754-9.06-14.42z"/>
    <g fill="#007acc">
      <path d="M246.94 228.362l-52.747 25.397a15.95 15.95 0 01-18.194-3.092L3.324 93.516c-4.632-4.165-4.632-11.278 0-15.443l14.11-13.155a10.653 10.653 0 0113.613-.606l208.907 158.426c6.44 4.882 15.976 1.075 15.976-6.388v9.683c0 6.15-3.522 11.754-9.06 14.42z"/>
      <path d="M194.196 253.763A15.955 15.955 0 01181.05 254c-1.646-.427-3.185-1.154-4.535-2.139-1.478-1.078-2.713-2.474-3.616-4.09a15.907 15.907 0 01-2.172-5.729c-.208-1.05-.32-2.118-.334-3.188V17.146a15.936 15.936 0 019.883-14.74c1.692-.721 3.517-1.11 5.363-1.14 1.848-.033 3.683.303 5.4.99a15.908 15.908 0 013.76 2.163c1.16.878 2.18 1.918 3.028 3.087l52.747 25.397c5.537 2.667 9.06 8.27 9.06 14.42v201.963c0 6.15-3.522 11.754-9.06 14.42l-52.747 25.397a15.916 15.916 0 01-3.631 1.66z" opacity=".25"/>
    </g>
  </g>
</svg>